HIERARCHY
ROOT Hips
{
	OFFSET 51.082600 -22.041416 95.623100
	CHANNELS 6 Xposition Yposition Zposition Xrotation Yrotation Zrotation
	JOINT spine
	{
		OFFSET 0.000000 -0.458069 7.965683
		CHANNELS 3 Xrotation Yrotation Zrotation
		JOINT spine1
		{
			OFFSET 0.000000 -0.000002 10.243103
			CHANNELS 3 Xrotation Yrotation Zrotation
			JOINT spine2
			{
				OFFSET 0.000000 -0.000002 9.814751
				CHANNELS 3 Xrotation Yrotation Zrotation
				JOINT Neck
				{
					OFFSET 0.000000 -1.201384 25.198608
					CHANNELS 3 Xrotation Yrotation Zrotation
					JOINT Head
					{
						OFFSET 0.000000 0.000000 7.613144
						CHANNELS 3 Xrotation Yrotation Zrotation
						End Site
						{
							OFFSET 0.000000 6.077326 18.428101
						}
					}
				}
				JOINT RightShoulder
				{
					OFFSET -4.132702 0.575451 10.599197
					CHANNELS 3 Xrotation Yrotation Zrotation
					JOINT RightArm
					{
						OFFSET 0.000000 -0.000004 13.901794
						CHANNELS 3 Xrotation Yrotation Zrotation
						JOINT RightArmRoll
						{
							OFFSET 0.000000 0.000000 7.017883
							CHANNELS 3 Xrotation Yrotation Zrotation
							JOINT RightForeArm
							{
								OFFSET 0.000000 -0.000004 20.440598
								CHANNELS 3 Xrotation Yrotation Zrotation
								JOINT RightForeArmRoll
								{
									OFFSET 0.000000 -0.000002 7.875153
									CHANNELS 3 Xrotation Yrotation Zrotation
									JOINT RightHand
									{
										OFFSET 0.000000 -0.000002 15.803696
										CHANNELS 3 Xrotation Yrotation Zrotation
										End Site
										{
											OFFSET 0.000000 0.000000 0.100006
										}
									}
								}
							}
						}
					}
				}
				JOINT LeftShoulder
				{
					OFFSET 4.132702 0.575451 10.599197
					CHANNELS 3 Xrotation Yrotation Zrotation
					JOINT LeftArm
					{
						OFFSET 0.000000 -0.000004 13.901794
						CHANNELS 3 Xrotation Yrotation Zrotation
						JOINT LeftArmRoll
						{
							OFFSET 0.000000 0.000000 7.017883
							CHANNELS 3 Xrotation Yrotation Zrotation
							JOINT LeftForeArm
							{
								OFFSET 0.000000 -0.000004 20.440598
								CHANNELS 3 Xrotation Yrotation Zrotation
								JOINT LeftForeArmRoll
								{
									OFFSET 0.000000 -0.000002 7.875153
									CHANNELS 3 Xrotation Yrotation Zrotation
									JOINT LeftHand
									{
										OFFSET 0.000000 -0.000002 15.803696
										CHANNELS 3 Xrotation Yrotation Zrotation
										End Site
										{
											OFFSET 0.000000 0.000000 0.100006
										}
									}
								}
							}
						}
					}
				}
			}
		}
	}
	JOINT RightUpLeg
	{
		OFFSET -7.060482 1.086090 -1.294701
		CHANNELS 3 Xrotation Yrotation Zrotation
		JOINT RightUpLegRoll
		{
			OFFSET 0.000000 -0.000004 18.530800
			CHANNELS 3 Xrotation Yrotation Zrotation
			JOINT RightLeg
			{
				OFFSET 0.000000 0.000004 -22.947601
				CHANNELS 3 Xrotation Yrotation Zrotation
				JOINT RightLegRoll
				{
					OFFSET 0.000000 -0.000004 23.022598
					CHANNELS 3 Xrotation Yrotation Zrotation
					JOINT RightFoot
					{
						OFFSET 0.000000 -0.000002 19.162498
						CHANNELS 3 Xrotation Yrotation Zrotation
						JOINT RightToeBase
						{
							OFFSET 0.000000 -0.000004 16.018799
							CHANNELS 3 Xrotation Yrotation Zrotation
							End Site
							{
								OFFSET 0.006790 0.894205 7.757828
							}
						}
					}
				}
			}
		}
	}
	JOINT LeftUpLeg
	{
		OFFSET 7.060482 1.086090 -1.294701
		CHANNELS 3 Xrotation Yrotation Zrotation
		JOINT LeftUpLegRoll
		{
			OFFSET 0.000000 -0.000004 18.530899
			CHANNELS 3 Xrotation Yrotation Zrotation
			JOINT LeftLeg
			{
				OFFSET 0.000000 -0.000004 22.947495
				CHANNELS 3 Xrotation Yrotation Zrotation
				JOINT LeftLegRoll
				{
					OFFSET 0.000000 -0.000004 23.235504
					CHANNELS 3 Xrotation Yrotation Zrotation
					JOINT LeftFoot
					{
						OFFSET 0.000000 -0.000002 18.949600
						CHANNELS 3 Xrotation Yrotation Zrotation
						JOINT LeftToeBase
						{
							OFFSET 0.000000 -0.000004 16.018799
							CHANNELS 3 Xrotation Yrotation Zrotation
							End Site
							{
								OFFSET -0.030430 0.894207 7.757828
							}
						}
					}
				}
			}
		}
	}
}
MOTION
Frames: 8
Frame Time: 0.041667
51.876099 -18.865814 95.394897 -2.421470 1.315885 1.659461 -1.783983 -0.201645 -0.063734 0.416140 -0.401938 -0.131805 2.061230 -0.403430 -0.127339 21.933809 -2.873931 -0.823739 0.816780 1.546883 -1.099210 -4.921919 -69.783455 -6.767786 -54.573789 -111.366426 -33.681739 0.000001 0.000000 0.000001 0.153822 -5.732912 -0.134684 -0.000007 0.000005 -3.011191 -5.000207 -7.999282 0.000098 -0.181851 68.832898 1.403655 -39.578440 111.447623 22.452932 0.000002 0.000000 0.000000 8.812777 7.065786 -0.672708 -0.000004 -0.000007 3.003759 -5.000192 7.999081 -0.000103 1.508118 -175.773457 -1.753907 -179.999991 0.000006 -1.260998 169.196299 -1.714087 -0.831037 -0.000008 -0.000004 0.320058 72.852847 6.867399 1.904373 26.091744 -7.337450 0.930224 0.494753 172.626269 -0.805774 -0.000005 -0.000004 -1.213020 -11.678429 1.945811 0.520000 -0.000006 -0.000000 -0.348571 73.939892 -6.845056 -1.877499 25.519419 7.354553 -0.091969 
51.875401 -18.874014 95.393303 -2.427945 1.318795 1.659053 -1.782250 -0.200571 -0.063782 0.420882 -0.399785 -0.132292 2.065971 -0.401287 -0.127825 21.974008 -2.900126 -0.822425 0.764067 1.563211 -1.100825 -4.924405 -69.804752 -6.772316 -54.583272 -111.386684 -33.692104 0.000001 0.000000 -0.000000 0.145984 -5.728093 -0.137559 -0.000007 0.000006 -3.011142 -5.000208 -7.999281 0.000098 -0.147116 68.837242 1.365477 -39.583115 111.452616 22.462385 0.000001 -0.000000 -0.000001 8.780216 7.074923 -0.671074 -0.000003 -0.000007 3.003761 -5.000192 7.999081 -0.000104 1.504278 -175.770451 -1.738112 -179.999991 0.000005 -1.261995 169.166587 -1.730623 -0.833126 -0.000008 -0.000004 0.320504 72.862259 6.867438 1.904400 26.094968 -7.337455 0.935076 0.492224 172.620259 -0.811332 -0.000005 -0.000004 -1.213020 -11.707543 1.945186 0.520432 -0.000007 0.000000 -0.349807 73.957876 -6.844784 -1.877565 25.519824 7.354552 -0.092463 
51.865204 -18.884218 95.386902 -2.434295 1.321996 1.658406 -1.780572 -0.199573 -0.063793 0.425526 -0.397781 -0.132713 2.070619 -0.399293 -0.128244 22.013411 -2.926785 -0.820787 0.712692 1.580188 -1.102214 -4.927503 -69.826028 -6.777538 -54.592749 -111.406949 -33.703360 0.000000 0.000000 0.000001 0.137861 -5.724154 -0.140400 -0.000004 0.000005 -3.011052 -5.000208 -7.999282 0.000098 -0.113494 68.841367 1.328536 -39.580745 111.456864 22.467649 0.000001 -0.000000 -0.000002 8.753749 7.087000 -0.670020 -0.000003 -0.000008 3.003760 -5.000196 7.999082 -0.000106 1.500509 -175.767446 -1.721651 -179.999991 0.000005 -1.261995 169.137381 -1.749102 -0.834580 -0.000008 -0.000004 0.320883 72.870824 6.867529 1.904388 26.098409 -7.337454 0.940176 0.489917 172.613278 -0.817184 -0.000004 -0.000005 -1.213020 -11.736058 1.944652 0.520820 -0.000007 0.000000 -0.351022 73.975655 -6.844522 -1.877544 25.520124 7.354552 -0.092940 
51.867901 -18.895414 95.385010 -2.440544 1.325397 1.657595 -1.778941 -0.198625 -0.063778 0.430102 -0.395884 -0.133088 2.075189 -0.397404 -0.128615 22.052230 -2.953774 -0.818908 0.662246 1.597633 -1.103434 -4.931046 -69.847181 -6.783240 -54.604282 -111.426634 -33.717406 -0.000001 0.000000 -0.000002 0.129551 -5.720815 -0.143215 -0.000003 0.000005 -3.010951 -5.000206 -7.999281 0.000099 -0.080648 68.845582 1.292467 -39.574703 111.460061 22.471292 0.000001 0.000000 -0.000001 8.731531 7.101142 -0.669356 -0.000001 -0.000007 3.003759 -5.000195 7.999083 -0.000103 1.496796 -175.764454 -1.704718 -179.999991 0.000005 -1.261995 169.108558 -1.766614 -0.835868 -0.000008 -0.000003 0.321217 72.878760 6.867655 1.904421 26.101949 -7.337457 0.945456 0.487776 172.606271 -0.823234 -0.000005 -0.000004 -1.213020 -11.764272 1.944170 0.521176 -0.000005 0.000000 -0.352224 73.993324 -6.844288 -1.877533 25.520524 7.354550 -0.093432 
51.865898 -18.904011 95.383492 -2.446751 1.328908 1.656689 -1.777331 -0.197709 -0.063749 0.434639 -0.394046 -0.133438 2.079728 -0.395574 -0.128958 22.090659 -2.980958 -0.816869 0.612332 1.615338 -1.104552 -4.934834 -69.868238 -6.789214 -54.613564 -111.446810 -33.729383 -0.000001 0.000000 0.000001 0.121123 -5.717840 -0.146023 -0.000003 0.000005 -3.010832 -5.000211 -7.999282 0.000099 -0.048239 68.849789 1.256873 -39.564871 111.463428 22.472077 0.000001 0.000000 -0.000000 8.711748 7.116456 -0.668919 -0.000001 -0.000007 3.003759 -5.000189 7.999083 -0.000105 1.493101 -175.761435 -1.687523 -179.999991 0.000006 -1.261995 169.079926 -1.786081 -0.837533 -0.000008 -0.000003 0.321525 72.886383 6.867800 1.904473 26.105476 -7.337462 0.950838 0.485724 172.599263 -0.829397 -0.000005 -0.000004 -1.213020 -11.792284 1.943717 0.521515 -0.000006 0.000000 -0.353418 74.010810 -6.844117 -1.877443 25.520831 7.354556 -0.093902 
51.869705 -18.914618 95.381897 -2.452937 1.332449 1.655754 -1.775721 -0.196799 -0.063716 0.439166 -0.392222 -0.133781 2.084259 -0.393760 -0.129296 22.128997 -3.008184 -0.814766 0.562557 1.633111 -1.105603 -4.938713 -69.889392 -6.795281 -54.622840 -111.466987 -33.741432 0.000001 -0.000000 -0.000000 0.112670 -5.714940 -0.148818 -0.000006 0.000005 -3.010722 -5.000207 -7.999281 0.000098 -0.015932 68.853901 1.221393 -39.555996 111.465846 22.474288 0.000000 0.000000 0.000001 8.692576 7.132064 -0.668528 -0.000003 -0.000007 3.003759 -5.000195 7.999082 -0.000104 1.489419 -175.757419 -1.670241 -179.999991 0.000006 -1.261995 169.051307 -1.804565 -0.839040 -0.000008 -0.000004 0.321826 72.893896 6.867949 1.904435 26.109015 -7.337460 0.956233 0.483696 172.592255 -0.835588 -0.000005 -0.000005 -1.213020 -11.820198 1.943275 0.521847 -0.000006 0.000000 -0.354610 74.028384 -6.843865 -1.877535 25.521142 7.354555 -0.094370 
51.865200 -18.924915 95.379593 -2.459146 1.335939 1.654869 -1.774099 -0.195876 -0.063690 0.443713 -0.390369 -0.134138 2.088798 -0.391916 -0.129647 22.167442 -3.035316 -0.812702 0.512509 1.650754 -1.106675 -4.942485 -69.910545 -6.801230 -54.634171 -111.486589 -33.755591 0.000003 0.000000 0.000002 0.104274 -5.711873 -0.151623 -0.000002 0.000006 -3.010600 -5.000206 -7.999282 0.000100 0.016613 68.858101 1.185658 -39.548435 111.468626 22.477215 0.000002 -0.000000 -0.000001 8.672187 7.147094 -0.668009 -0.000001 -0.000007 3.003760 -5.000195 7.999082 -0.000104 1.485726 -175.754414 -1.653106 -179.999991 0.000005 -1.261995 169.022675 -1.823045 -0.840553 -0.000007 -0.000003 0.322140 72.901628 6.868081 1.904480 26.112657 -7.337458 0.961598 0.481623 172.585261 -0.841722 -0.000005 -0.000004 -1.213020 -11.848313 1.942811 0.522190 -0.000007 -0.000000 -0.355806 74.045972 -6.843660 -1.877434 25.521541 7.354550 -0.094850 
51.872101 -18.872816 95.364594 -2.465423 1.339280 1.654109 -1.772448 -0.194914 -0.063683 0.448309 -0.388441 -0.134528 2.093397 -0.389998 -0.130033 22.206489 -3.062207 -0.810724 0.461793 1.668076 -1.107823 -4.945914 -69.931705 -6.806813 -54.643412 -111.506772 -33.766997 -0.000001 -0.000000 -0.000000 0.096015 -5.708365 -0.154445 -0.000007 0.000005 -3.010511 -5.000206 -7.999282 0.000098 0.049734 68.862295 1.149275 -39.541854 111.472908 22.479630 0.000003 0.000000 -0.000000 8.648748 7.160638 -0.667184 -0.000003 -0.000007 3.003760 -5.000195 7.999082 -0.000103 1.481993 -175.751409 -1.636315 -179.999991 0.000005 -1.261995 168.993743 -1.841520 -0.842094 -0.000007 -0.000004 0.322487 72.909763 6.868186 1.904497 26.116091 -7.337460 0.966821 0.479436 172.578253 -0.847712 -0.000004 -0.000004 -1.213020 -11.876626 1.942315 0.522555 -0.000006 0.000000 -0.357012 74.063566 -6.843467 -1.877435 25.521849 7.354557 -0.095331 
